<svg width="76" height="36" viewBox="0 0 76 36" fill="none" xmlns="http://www.w3.org/2000/svg">
<g clip-path="url(#clip0_6005_3755)">
<g clip-path="url(#clip1_6005_3755)">
<path d="M47.1405 38.0651C42.3012 38.0651 37.6948 37.8364 35.4998 37.7094C13.4073 36.4145 10.9628 33.4776 9.49939 31.7086C8.68732 30.7482 8.15628 29.5749 7.96665 28.3225C7.77704 27.0702 7.93653 25.7887 8.42685 24.624C9.08173 23.0217 10.3045 21.7285 11.8526 21.0014H11.5615L7.28774 20.5952L6.09867 20.4768C4.42799 15.163 2.48521 9.94208 0.27832 4.83516C0.27832 3.15156 0.935298 1.53677 2.10479 0.346274C3.27429 -0.844218 4.8605 -1.51288 6.51442 -1.51288C7.34589 -1.51288 8.90078 -1.58074 10.9047 -1.65691C23.2437 -2.14783 48.9199 -3.16337 62.6975 2.29594C69.3494 4.92827 69.1497 9.5073 68.7506 11.344C68.5209 12.4683 68.0177 13.5158 67.2872 14.3909L68.4595 14.6195C72.8249 15.5336 75.1114 17.7512 75.2528 21.2045C75.3692 24.0316 73.648 27.2224 69.5489 27.9757C68.5345 28.162 67.0545 28.3314 65.167 28.4921C65.743 30.0468 65.6975 31.7694 65.0399 33.2902C64.3823 34.8109 63.1652 36.0085 61.6499 36.626C58.7895 37.7517 52.8029 38.0651 47.1405 38.0651Z" fill="#FFC83E"/>
</g>
</g>
<path d="M25.5654 13.9688H20.3311V18.1777H25.1553V20.1406H20.3311V26H18.0068V11.9961H25.5654V13.9688ZM33.6123 18.1582C33.3389 17.9434 32.945 17.8359 32.4307 17.8359C31.7601 17.8359 31.2002 18.1387 30.751 18.7441C30.3018 19.3496 30.0771 20.1732 30.0771 21.2148V26H27.8115V16H30.0771V18.0605H30.1162C30.3376 17.3574 30.6761 16.8105 31.1318 16.4199C31.5941 16.0228 32.1084 15.8242 32.6748 15.8242C33.085 15.8242 33.3975 15.8861 33.6123 16.0098V18.1582ZM43.5049 21.6152H36.6885C36.7145 22.5397 36.9977 23.2526 37.5381 23.7539C38.085 24.2552 38.8337 24.5059 39.7842 24.5059C40.8519 24.5059 41.8317 24.1868 42.7236 23.5488V25.375C41.8122 25.9479 40.6077 26.2344 39.1104 26.2344C37.639 26.2344 36.4834 25.7819 35.6436 24.877C34.8102 23.9655 34.3936 22.6862 34.3936 21.0391C34.3936 19.4831 34.8525 18.2168 35.7705 17.2402C36.695 16.2572 37.8408 15.7656 39.208 15.7656C40.5752 15.7656 41.6331 16.2051 42.3818 17.084C43.1305 17.9629 43.5049 19.1836 43.5049 20.7461V21.6152ZM41.3174 20.0137C41.3109 19.1999 41.1188 18.5684 40.7412 18.1191C40.3636 17.6634 39.8428 17.4355 39.1787 17.4355C38.5277 17.4355 37.9743 17.6732 37.5186 18.1484C37.0693 18.6237 36.7926 19.2454 36.6885 20.0137H41.3174ZM54.1299 21.6152H47.3135C47.3395 22.5397 47.6227 23.2526 48.1631 23.7539C48.71 24.2552 49.4587 24.5059 50.4092 24.5059C51.4769 24.5059 52.4567 24.1868 53.3486 23.5488V25.375C52.4372 25.9479 51.2327 26.2344 49.7354 26.2344C48.264 26.2344 47.1084 25.7819 46.2686 24.877C45.4352 23.9655 45.0186 22.6862 45.0186 21.0391C45.0186 19.4831 45.4775 18.2168 46.3955 17.2402C47.32 16.2572 48.4658 15.7656 49.833 15.7656C51.2002 15.7656 52.2581 16.2051 53.0068 17.084C53.7555 17.9629 54.1299 19.1836 54.1299 20.7461V21.6152ZM51.9424 20.0137C51.9359 19.1999 51.7438 18.5684 51.3662 18.1191C50.9886 17.6634 50.4678 17.4355 49.8037 17.4355C49.1527 17.4355 48.5993 17.6732 48.1436 18.1484C47.6943 18.6237 47.4176 19.2454 47.3135 20.0137H51.9424Z" fill="#454545"/>
<defs>
<clipPath id="clip0_6005_3755">
<rect width="74.98" height="35" fill="white" transform="translate(0.27832 0.5)"/>
</clipPath>
<clipPath id="clip1_6005_3755">
<rect width="74.98" height="40.1301" fill="white" transform="translate(0.27832 -2.06507)"/>
</clipPath>
</defs>
</svg>
