<svg width="370" height="1450" viewBox="0 0 370 1450" fill="none" xmlns="http://www.w3.org/2000/svg">
<g opacity="0.5">
<path opacity="0.0344828" d="M-249.179 889.741C-100.029 764.59 23.2304 637.308 101.947 532.71C141.31 480.404 169.5 433.816 184.234 396.033C191.601 377.14 195.584 360.498 195.943 346.474C196.303 332.457 193.045 321.117 185.999 312.721C178.954 304.325 168.353 299.147 154.487 297.067C140.613 294.986 123.532 296.019 103.647 299.994C63.8794 307.942 13.1039 327.614 -45.2422 357.297C-161.92 416.654 -308.672 515.939 -457.822 641.09C-606.972 766.242 -730.232 893.524 -808.948 998.122C-848.311 1050.43 -876.502 1097.02 -891.236 1134.8C-898.603 1153.69 -902.585 1170.33 -902.945 1184.36C-903.304 1198.37 -900.047 1209.71 -893.001 1218.11C-885.956 1226.51 -875.354 1231.68 -861.488 1233.76C-847.614 1235.85 -830.534 1234.81 -810.649 1230.84C-770.882 1222.89 -720.106 1203.22 -661.759 1173.53C-545.081 1114.18 -398.329 1014.89 -249.179 889.741Z" stroke="#2B2C3B" stroke-width="2"/>
<path opacity="0.0689655" d="M-238.74 874.547C-101.065 736.872 10.632 599.332 79.9325 488.271C114.587 432.734 138.61 383.866 149.994 344.943C155.686 325.48 158.204 308.555 157.34 294.552C156.477 280.557 152.242 269.545 144.492 261.794C136.741 254.044 125.729 249.81 111.735 248.947C97.7322 248.083 80.8064 250.6 61.344 256.293C22.4203 267.677 -26.4475 291.7 -81.9846 326.354C-193.045 395.655 -330.586 507.352 -468.26 645.027C-605.935 782.701 -717.632 920.242 -786.933 1031.3C-821.587 1086.84 -845.611 1135.71 -856.995 1174.63C-862.687 1194.09 -865.204 1211.02 -864.34 1225.02C-863.477 1239.02 -859.243 1250.03 -851.493 1257.78C-843.742 1265.53 -832.73 1269.76 -818.735 1270.63C-804.733 1271.49 -787.807 1268.97 -768.345 1263.28C-729.421 1251.9 -680.553 1227.87 -625.016 1193.22C-513.955 1123.92 -376.415 1012.22 -238.74 874.547Z" stroke="#2B2C3B" stroke-width="2"/>
<path opacity="0.103448" d="M-229.175 858.477C-104.023 709.327 -4.73838 562.575 54.6188 445.897C84.301 387.551 103.973 336.775 111.922 297.008C115.896 277.123 116.929 260.042 114.848 246.168C112.768 232.302 107.59 221.701 99.1938 214.655C90.7972 207.61 79.4581 204.352 65.4418 204.711C51.417 205.071 34.775 209.054 15.8828 216.421C-21.9006 231.155 -68.4887 259.345 -120.794 298.708C-225.392 377.424 -352.674 500.684 -477.826 649.834C-602.977 798.984 -702.262 945.736 -761.62 1062.41C-791.302 1120.76 -810.975 1171.54 -818.923 1211.3C-822.898 1231.19 -823.93 1248.27 -821.849 1262.14C-819.769 1276.01 -814.592 1286.61 -806.195 1293.66C-797.799 1300.7 -786.459 1303.96 -772.443 1303.6C-758.418 1303.24 -741.776 1299.26 -722.884 1291.89C-685.101 1277.16 -638.512 1248.97 -586.207 1209.6C-481.608 1130.89 -354.326 1007.63 -229.175 858.477Z" stroke="#2B2C3B" stroke-width="2"/>
<path opacity="0.137931" d="M-220.555 841.613C-108.879 682.123 -22.7621 527.276 26.2 405.869C50.6841 345.158 65.856 292.861 70.3084 252.552C72.5347 232.397 72.0747 215.291 68.7924 201.651C65.5121 188.019 59.4299 177.909 50.4513 171.622C41.4726 165.335 29.8927 163.078 15.9611 164.658C2.02102 166.239 -14.2105 171.657 -32.3887 180.642C-68.7442 198.613 -112.698 230.756 -161.374 274.528C-258.713 362.061 -374.768 495.945 -486.444 655.435C-598.12 814.925 -684.237 969.772 -733.199 1091.18C-757.683 1151.89 -772.856 1204.19 -777.308 1244.5C-779.534 1264.65 -779.074 1281.76 -775.792 1295.4C-772.511 1309.03 -766.43 1319.14 -757.451 1325.43C-748.473 1331.71 -736.892 1333.97 -722.96 1332.39C-709.02 1330.81 -692.789 1325.39 -674.611 1316.41C-638.256 1298.44 -594.301 1266.29 -545.625 1222.52C-448.286 1134.99 -332.231 1001.1 -220.555 841.613Z" stroke="#2B2C3B" stroke-width="2"/>
<path opacity="0.172414" d="M-212.948 824.042C-115.597 655.426 -43.3041 493.662 -5.10962 368.45C13.9899 305.836 24.5462 252.416 25.4685 211.872C25.9296 191.599 23.9805 174.599 19.5219 161.296C15.066 148.002 8.12581 138.461 -1.36664 132.98C-10.859 127.5 -22.5916 126.261 -36.3325 129.049C-50.0818 131.839 -65.7793 138.651 -83.1052 149.187C-117.756 170.257 -158.741 206.109 -203.417 253.957C-292.757 349.641 -396.701 493.13 -494.052 661.746C-591.403 830.363 -663.696 992.126 -701.89 1117.34C-720.99 1179.95 -731.547 1233.37 -732.469 1273.92C-732.93 1294.19 -730.98 1311.19 -726.522 1324.49C-722.066 1337.79 -715.126 1347.33 -705.634 1352.81C-696.142 1358.29 -684.409 1359.53 -670.668 1356.74C-656.918 1353.95 -641.221 1347.14 -623.895 1336.6C-589.244 1315.53 -548.259 1279.68 -503.583 1231.83C-414.243 1136.15 -310.299 992.658 -212.948 824.042Z" stroke="#2B2C3B" stroke-width="2"/>
<path opacity="0.206897" d="M-206.41 805.852C-124.125 629.393 -66.2059 461.944 -39.0698 333.879C-25.5001 269.839 -19.6399 215.702 -22.2547 175.232C-23.5622 154.996 -26.9856 138.23 -32.5866 125.367C-38.1842 112.512 -45.9296 103.612 -55.8635 98.9797C-65.7974 94.3476 -77.5934 94.1355 -91.039 98.1106C-104.493 102.088 -119.537 110.243 -135.879 122.248C-168.561 146.259 -206.266 185.546 -246.601 237.106C-327.262 340.212 -418.305 492.215 -500.589 668.674C-582.873 845.133 -640.793 1012.58 -667.929 1140.65C-681.499 1204.69 -687.36 1258.83 -684.745 1299.3C-683.437 1319.53 -680.013 1336.3 -674.412 1349.16C-668.815 1362.01 -661.07 1370.91 -651.136 1375.55C-641.202 1380.18 -629.406 1380.39 -615.96 1376.42C-602.506 1372.44 -587.462 1364.28 -571.121 1352.28C-538.438 1328.27 -500.733 1288.98 -460.398 1237.42C-379.737 1134.31 -288.694 982.311 -206.41 805.852Z" stroke="#2B2C3B" stroke-width="2"/>
<path opacity="0.241379" d="M-200.992 787.139C-134.4 604.179 -91.2946 432.32 -75.4234 302.377C-67.4868 237.398 -66.3672 182.956 -72.4993 142.868C-75.5655 122.823 -80.4371 106.419 -87.1378 94.0937C-93.8346 81.7752 -102.326 73.5839 -112.626 69.8351C-122.926 66.0864 -134.695 66.9032 -147.743 72.035C-160.799 77.17 -175.075 86.6047 -190.309 99.9888C-220.774 126.756 -254.911 169.181 -290.599 224.059C-361.967 333.803 -439.415 493.162 -506.007 676.122C-572.599 859.081 -615.704 1030.94 -631.575 1160.88C-639.512 1225.86 -640.632 1280.31 -634.5 1320.39C-631.434 1340.44 -626.562 1356.84 -619.861 1369.17C-613.164 1381.49 -604.673 1389.68 -594.374 1393.43C-584.074 1397.17 -572.303 1396.36 -559.255 1391.23C-546.199 1386.09 -531.923 1376.66 -516.69 1363.27C-486.225 1336.5 -452.088 1294.08 -416.399 1239.2C-345.032 1129.46 -267.583 970.098 -200.992 787.139Z" stroke="#2B2C3B" stroke-width="2"/>
<path opacity="0.517241" d="M-200.992 631.076C-267.584 448.117 -345.033 288.758 -416.4 179.014C-452.088 124.135 -486.225 81.7109 -516.691 54.9433C-531.924 41.5591 -546.2 32.1244 -559.256 26.9895C-572.304 21.8576 -584.074 21.041 -594.374 24.7898C-604.674 28.5388 -613.165 36.7298 -619.862 49.0481C-626.562 61.3739 -631.434 77.7778 -634.5 97.8224C-640.632 137.91 -639.513 192.352 -631.576 257.332C-615.705 387.274 -572.6 559.133 -506.008 742.093C-439.416 925.052 -361.968 1084.41 -290.6 1194.16C-254.912 1249.03 -220.775 1291.46 -190.309 1318.23C-175.076 1331.61 -160.8 1341.04 -147.744 1346.18C-134.696 1351.31 -122.927 1352.13 -112.627 1348.38C-102.327 1344.63 -93.8354 1336.44 -87.1386 1324.12C-80.4379 1311.8 -75.5659 1295.39 -72.4998 1275.35C-66.3676 1235.26 -67.4876 1180.82 -75.4242 1115.84C-91.2955 985.895 -134.401 814.036 -200.992 631.076Z" stroke="#2B2C3B" stroke-width="2"/>
<path opacity="0.551724" d="M-206.411 612.366C-288.695 435.907 -379.738 283.904 -460.399 180.798C-500.734 129.239 -538.438 89.9508 -571.121 65.9403C-587.463 53.9347 -602.507 45.7802 -615.961 41.8027C-629.406 37.8275 -641.203 38.0399 -651.137 42.6722C-661.071 47.3045 -668.816 56.2045 -674.413 69.0595C-680.014 81.9224 -683.437 98.6884 -684.745 118.924C-687.36 159.394 -681.5 213.531 -667.93 277.571C-640.794 405.636 -582.874 573.085 -500.59 749.544C-418.305 926.004 -327.263 1078.01 -246.602 1181.11C-206.266 1232.67 -168.562 1271.96 -135.879 1295.97C-119.537 1307.98 -104.493 1316.13 -91.0397 1320.11C-77.5941 1324.08 -65.7982 1323.87 -55.8643 1319.24C-45.9303 1314.61 -38.1849 1305.71 -32.5873 1292.85C-26.9864 1279.99 -23.5625 1263.22 -22.255 1242.99C-19.6401 1202.52 -25.5007 1148.38 -39.0705 1084.34C-66.2067 956.274 -124.126 788.826 -206.411 612.366Z" stroke="#2B2C3B" stroke-width="2"/>
<path opacity="0.586207" d="M-212.948 594.176C-310.299 425.559 -414.243 282.07 -503.583 186.386C-548.259 138.539 -589.244 102.687 -623.895 81.6159C-641.221 71.0803 -656.918 64.2679 -670.668 61.4782C-684.409 58.69 -696.142 59.9297 -705.634 65.4102C-715.126 70.8907 -722.066 80.4317 -726.522 93.7257C-730.981 107.028 -732.93 124.028 -732.468 144.301C-731.546 184.845 -720.99 238.265 -701.89 300.879C-663.696 426.092 -591.403 587.855 -494.052 756.471C-396.701 925.088 -292.757 1068.58 -203.417 1164.26C-158.741 1212.11 -117.756 1247.96 -83.1047 1269.03C-65.7789 1279.57 -50.0817 1286.38 -36.3325 1289.17C-22.5916 1291.96 -10.859 1290.72 -1.36664 1285.24C8.12581 1279.76 15.066 1270.22 19.5219 1256.92C23.9805 1243.62 25.9301 1226.62 25.469 1206.35C24.5467 1165.8 13.99 1112.38 -5.10962 1049.77C-43.3041 924.555 -115.597 762.792 -212.948 594.176Z" stroke="#2B2C3B" stroke-width="2"/>
<path opacity="0.62069" d="M-220.555 576.605C-332.231 417.115 -448.286 283.231 -545.625 195.698C-594.301 151.926 -638.255 119.782 -674.61 101.812C-692.789 92.8264 -709.02 87.4081 -722.96 85.8273C-736.892 84.2474 -748.473 86.5049 -757.451 92.7919C-766.43 99.0788 -772.511 109.188 -775.792 122.82C-779.074 136.46 -779.534 153.566 -777.308 173.721C-772.855 214.03 -757.683 266.327 -733.199 327.038C-684.237 448.446 -598.12 603.293 -486.444 762.783C-374.768 922.273 -258.713 1056.16 -161.374 1143.69C-112.698 1187.46 -68.7437 1219.61 -32.3881 1237.58C-14.21 1246.56 2.02115 1251.98 15.9612 1253.56C29.8928 1255.14 41.4727 1252.88 50.4513 1246.6C59.43 1240.31 65.5122 1230.2 68.7925 1216.57C72.0747 1202.93 72.5353 1185.82 70.3091 1165.67C65.8567 1125.36 50.6842 1073.06 26.2001 1012.35C-22.7621 890.942 -108.879 736.095 -220.555 576.605Z" stroke="#2B2C3B" stroke-width="2"/>
<path opacity="0.655172" d="M-229.175 559.74C-354.326 410.59 -481.608 287.33 -586.206 208.614C-638.512 169.251 -685.1 141.06 -722.883 126.327C-741.775 118.96 -758.417 114.977 -772.442 114.617C-786.459 114.257 -797.798 117.516 -806.195 124.561C-814.591 131.607 -819.769 142.208 -821.848 156.074C-823.929 169.948 -822.897 187.029 -818.922 206.913C-810.974 246.681 -791.301 297.457 -761.619 355.803C-702.262 472.481 -602.977 619.233 -477.826 768.383C-352.674 917.533 -225.392 1040.79 -120.794 1119.51C-68.4882 1158.87 -21.8998 1187.06 15.8837 1201.8C34.7757 1209.16 51.4173 1213.15 65.4421 1213.51C79.4583 1213.87 90.7975 1210.61 99.194 1203.56C107.591 1196.52 112.768 1185.91 114.848 1172.05C116.929 1158.17 115.897 1141.09 111.923 1121.21C103.974 1081.44 84.3014 1030.67 54.6191 972.32C-4.73817 855.642 -104.023 708.89 -229.175 559.74Z" stroke="#2B2C3B" stroke-width="2"/>
<path opacity="0.689655" d="M-238.74 543.671C-376.414 405.996 -513.955 294.299 -625.015 224.998C-680.553 190.344 -729.42 166.321 -768.344 154.937C-787.806 149.244 -804.732 146.727 -818.735 147.591C-832.729 148.454 -843.742 152.688 -851.493 160.439C-859.243 168.189 -863.477 179.202 -864.34 193.196C-865.204 207.199 -862.686 224.124 -856.994 243.587C-845.61 282.511 -821.587 331.378 -786.932 386.915C-717.632 497.976 -605.935 635.516 -468.26 773.191C-330.585 910.866 -193.045 1022.56 -81.9843 1091.86C-26.4469 1126.52 22.4212 1150.54 61.345 1161.93C80.8073 1167.62 97.7326 1170.13 111.735 1169.27C125.73 1168.41 136.742 1164.17 144.492 1156.42C152.243 1148.67 156.477 1137.66 157.34 1123.67C158.204 1109.66 155.687 1092.74 149.995 1073.28C138.611 1034.35 114.587 985.484 79.9328 929.947C10.6323 818.886 -101.065 681.345 -238.74 543.671Z" stroke="#2B2C3B" stroke-width="2"/>
<path opacity="0.724138" d="M-249.18 528.475C-398.33 403.323 -545.081 304.038 -661.76 244.681C-720.106 214.999 -770.881 195.327 -810.649 187.378C-830.533 183.404 -847.614 182.371 -861.489 184.452C-875.355 186.532 -885.956 191.71 -893.002 200.106C-900.047 208.503 -903.305 219.842 -902.945 233.858C-902.585 247.883 -898.602 264.525 -891.235 283.417C-876.502 321.201 -848.311 367.789 -808.949 420.094C-730.232 524.692 -606.973 651.974 -457.823 777.126C-308.673 902.277 -161.921 1001.56 -45.2426 1060.92C13.1038 1090.6 63.8797 1110.27 103.648 1118.22C123.532 1122.2 140.612 1123.23 154.486 1121.15C168.352 1119.07 178.953 1113.89 185.999 1105.5C193.044 1097.1 196.303 1085.76 195.943 1071.74C195.583 1057.72 191.601 1041.08 184.234 1022.18C169.5 984.401 141.309 937.812 101.946 885.506C23.23 780.908 -100.03 653.626 -249.18 528.475Z" stroke="#2B2C3B" stroke-width="2"/>
<path opacity="0.758621" d="M-260.411 514.224C-419.901 402.548 -574.748 316.431 -696.155 267.469C-756.866 242.985 -809.163 227.813 -849.473 223.361C-869.628 221.134 -886.734 221.594 -900.374 224.877C-914.006 228.157 -924.116 234.239 -930.403 243.218C-936.689 252.196 -938.946 263.776 -937.367 277.708C-935.786 291.648 -930.367 307.879 -921.382 326.058C-903.411 362.413 -871.268 406.367 -827.496 455.043C-739.963 552.382 -606.079 668.437 -446.589 780.113C-287.099 891.789 -132.252 977.906 -10.8446 1026.87C49.8667 1051.35 102.164 1066.52 142.473 1070.98C162.628 1073.2 179.734 1072.74 193.374 1069.46C207.005 1066.18 217.115 1060.1 223.402 1051.12C229.689 1042.14 231.946 1030.56 230.367 1016.63C228.786 1002.69 223.368 986.458 214.383 968.28C196.412 931.925 164.268 887.97 120.496 839.294C32.9628 741.955 -100.921 625.9 -260.411 514.224Z" stroke="#2B2C3B" stroke-width="2"/>
<path opacity="0.793103" d="M-272.353 500.986C-440.969 403.635 -602.732 331.342 -727.945 293.148C-790.559 274.048 -843.979 263.492 -884.523 262.57C-904.796 262.108 -921.796 264.058 -935.098 268.516C-948.393 272.972 -957.934 279.912 -963.414 289.405C-968.895 298.897 -970.134 310.63 -967.346 324.371C-964.556 338.12 -957.744 353.817 -947.208 371.143C-926.138 405.794 -890.285 446.779 -842.438 491.455C-746.754 580.795 -603.265 684.739 -434.648 782.09C-266.032 879.441 -104.269 951.734 20.9439 989.928C83.5582 1009.03 136.979 1019.58 177.523 1020.51C197.795 1020.97 214.795 1019.02 228.097 1014.56C241.391 1010.1 250.932 1003.16 256.413 993.672C261.893 984.18 263.133 972.447 260.345 958.706C257.555 944.956 250.743 929.259 240.208 911.933C219.137 877.282 183.284 836.297 135.437 791.621C39.7528 702.281 -103.737 598.337 -272.353 500.986Z" stroke="#2B2C3B" stroke-width="2"/>
<path opacity="0.827586" d="M-284.912 488.817C-461.371 406.533 -628.82 348.613 -756.885 321.477C-820.925 307.907 -875.062 302.047 -915.532 304.662C-935.768 305.969 -952.534 309.393 -965.397 314.994C-978.252 320.591 -987.152 328.337 -991.784 338.271C-996.416 348.205 -996.629 360.001 -992.653 373.446C-988.676 386.9 -980.521 401.944 -968.516 418.286C-944.505 450.968 -905.218 488.673 -853.658 529.008C-750.552 609.669 -598.549 700.712 -422.09 782.996C-245.631 865.281 -78.1823 923.2 49.8829 950.336C113.924 963.906 168.061 969.767 208.531 967.152C228.767 965.844 245.532 962.42 258.395 956.819C271.25 951.222 280.15 943.477 284.782 933.543C289.414 923.609 289.627 911.813 285.652 898.367C281.674 884.913 273.52 869.87 261.515 853.528C237.504 820.845 198.216 783.141 146.656 742.805C43.5501 662.144 -108.453 571.101 -284.912 488.817Z" stroke="#2B2C3B" stroke-width="2"/>
<path opacity="0.862069" d="M-297.992 477.769C-480.951 411.177 -652.81 368.072 -782.753 352.2C-847.733 344.264 -902.174 343.144 -942.262 349.276C-962.307 352.342 -978.711 357.214 -991.037 363.915C-1003.36 370.612 -1011.55 379.103 -1015.3 389.403C-1019.04 399.703 -1018.23 411.472 -1013.1 424.52C-1007.96 437.576 -998.526 451.852 -985.142 467.086C-958.374 497.551 -915.949 531.688 -861.071 567.376C-751.327 638.744 -591.968 716.192 -409.008 782.784C-226.049 849.376 -54.1898 892.481 75.7531 908.352C140.733 916.289 195.175 917.409 235.263 911.277C255.308 908.211 271.711 903.339 284.037 896.638C296.355 889.941 304.546 881.45 308.295 871.15C312.044 860.851 311.227 849.08 306.095 836.032C300.96 822.976 291.526 808.7 278.142 793.467C251.375 763.002 208.95 728.865 154.071 693.176C44.3268 621.809 -115.032 544.36 -297.992 477.769Z" stroke="#2B2C3B" stroke-width="2"/>
<path opacity="0.896552" d="M-311.495 467.88C-499.562 417.488 -674.524 389.525 -805.356 385.04C-870.78 382.797 -925.112 386.426 -964.513 396.029C-984.214 400.831 -1000.13 407.113 -1011.83 414.863C-1023.51 422.608 -1030.93 431.781 -1033.77 442.368C-1036.61 452.956 -1034.77 464.609 -1028.52 477.16C-1022.26 489.719 -1011.62 503.118 -996.961 517.127C-967.64 545.144 -922.402 575.453 -864.622 606.223C-749.075 667.754 -583.572 731.019 -395.505 781.411C-207.438 831.803 -32.4762 859.766 98.3555 864.252C163.78 866.495 218.112 862.865 257.513 853.263C277.214 848.461 293.131 842.178 304.825 834.429C316.513 826.684 323.933 817.511 326.77 806.924C329.607 796.337 327.768 784.682 321.518 772.131C315.265 759.573 304.622 746.173 289.962 732.164C260.641 704.148 215.402 673.838 157.621 643.069C42.0749 581.538 -123.428 518.273 -311.495 467.88Z" stroke="#2B2C3B" stroke-width="2"/>
<path opacity="0.931035" d="M-325.317 459.185C-517.061 425.375 -693.794 412.768 -824.519 419.702C-889.889 423.17 -943.698 431.521 -982.113 444.521C-1001.32 451.021 -1016.63 458.667 -1027.6 467.407C-1038.57 476.141 -1045.16 485.926 -1047.07 496.72C-1048.97 507.514 -1046.12 518.963 -1038.8 530.922C-1031.48 542.888 -1019.71 555.309 -1003.88 567.986C-972.232 593.341 -924.524 619.592 -864.282 645.209C-743.812 696.435 -573.426 745.035 -381.682 778.844C-189.939 812.654 -13.2053 825.261 117.519 818.327C182.89 814.859 236.7 806.508 275.114 793.508C294.322 787.008 309.63 779.361 320.604 770.622C331.573 761.888 338.165 752.104 340.068 741.31C341.972 730.515 339.124 719.066 331.804 707.107C324.48 695.141 312.71 682.72 296.884 670.043C265.233 644.688 217.525 618.437 157.282 592.82C36.8129 541.594 -133.574 492.994 -325.317 459.185Z" stroke="#2B2C3B" stroke-width="2"/>
<path opacity="0.965517" d="M-339.355 451.707C-533.315 434.738 -710.475 437.582 -840.098 455.883C-904.917 465.035 -957.793 478.044 -994.928 494.343C-1013.5 502.493 -1028.08 511.444 -1038.25 521.106C-1048.42 530.763 -1054.13 541.086 -1055.09 552.005C-1056.04 562.924 -1052.21 574.081 -1043.87 585.356C-1035.53 596.638 -1022.73 607.986 -1005.86 619.236C-972.115 641.736 -922.3 663.729 -860.055 683.997C-735.579 724.529 -561.605 758.094 -367.645 775.063C-173.684 792.032 3.47553 789.188 133.099 770.887C197.918 761.735 250.795 748.726 287.93 732.428C306.498 724.278 321.081 715.327 331.253 705.664C341.418 696.007 347.133 685.686 348.088 674.767C349.043 663.848 345.208 652.69 336.874 641.414C328.535 630.132 315.728 618.785 298.857 607.535C265.116 585.035 215.302 563.042 153.056 542.773C28.5802 502.241 -145.394 468.677 -339.355 451.707Z" stroke="#2B2C3B" stroke-width="2"/>
<path d="M-353.501 445.458C-548.202 445.458 -724.44 463.732 -851.975 493.261C-915.75 508.027 -967.291 525.595 -1002.86 545.068C-1020.65 554.805 -1034.4 564.993 -1043.69 575.506C-1052.98 586.012 -1057.77 596.793 -1057.77 607.754C-1057.77 618.715 -1052.98 629.495 -1043.69 640.001C-1034.4 650.513 -1020.65 660.702 -1002.86 670.438C-967.291 689.912 -915.75 707.48 -851.975 722.246C-724.44 751.775 -548.202 770.049 -353.501 770.049C-158.8 770.049 17.438 751.775 144.973 722.246C208.748 707.48 260.29 689.912 295.863 670.438C313.65 660.702 327.398 650.513 336.688 640.001C345.973 629.495 350.766 618.715 350.767 607.754C350.767 596.793 345.974 586.012 336.688 575.506C327.398 564.994 313.65 554.805 295.863 545.068C260.29 525.595 208.748 508.027 144.973 493.261C17.438 463.732 -158.8 445.458 -353.501 445.458Z" stroke="#2B2C3B" stroke-width="2"/>
</g>
</svg>
