<svg width="184" height="192" viewBox="0 0 184 192" fill="none" xmlns="http://www.w3.org/2000/svg">
<g opacity="0.49">
<path d="M182.648 183.128C178.597 187.405 171.028 191.799 163.237 191.977C157.571 192.103 152.323 190.012 148.058 185.927C139.232 177.468 138.372 158.735 137.621 142.22C137.204 133.157 136.747 122.877 134.696 119.768C131.836 115.376 124.509 108.471 107.735 111.458C94.415 113.834 81.7882 115.329 73.6957 107.665C64.5029 98.9588 66.3542 85.5644 68.5323 76.244C69.2708 73.0119 70.4406 69.8949 72.0103 66.9765C67.2369 63.1964 63.806 58.7353 62.4013 54.3978C60.807 49.4882 61.1483 43.5448 61.4694 37.8066C61.9455 29.5112 62.3972 21.6751 57.4253 18.3185C52.9597 15.3123 37.4836 14.4287 30.2945 16.7929C23.7767 18.9234 13.5897 18.9589 1.99398 6.93366C1.63985 6.56659 1.36133 6.13356 1.17429 5.65931C0.987249 5.18505 0.895343 4.67886 0.903863 4.16962C0.912383 3.66037 1.02113 3.15806 1.22392 2.69135C1.42671 2.22465 1.71956 1.80268 2.08575 1.44956C2.45193 1.09645 2.88427 0.819108 3.3581 0.633342C3.83193 0.447579 4.33797 0.357041 4.84731 0.366908C5.35665 0.376776 5.85933 0.48684 6.32664 0.690834C6.79395 0.894828 7.21674 1.18878 7.57087 1.55584C12.4262 6.59172 19.8902 12.0448 27.8626 9.42375C35.835 6.80272 54.2647 6.84249 61.7547 11.8939C70.3893 17.7206 69.7627 28.6339 69.2093 38.2642C68.9093 43.5287 68.6212 48.5014 69.7662 52.0262C70.7748 55.1189 73.3832 58.1558 76.5308 60.6768C76.9817 60.2006 77.4047 59.754 77.8354 59.3765C82.0625 55.4357 86.9772 53.4477 91.296 53.9361C96.619 54.5284 100.113 58.7801 100.195 64.7704C100.25 70.0573 97.3592 73.7039 92.4485 74.5175C88.6573 75.1291 83.64 73.9231 78.546 71.2419C77.4412 73.3904 76.6068 75.6679 76.0617 78.0227C73.2509 90.0426 74.1574 97.4483 79.0029 102.037C84.4651 107.21 95.0524 105.831 106.352 103.814C122.037 101.019 134.401 105.177 141.174 115.524C144.395 120.438 144.815 129.89 145.362 141.875C146.018 156.197 146.832 174.017 153.401 180.345C156.233 183.027 159.368 184.313 163.024 184.23C168.933 184.098 174.615 180.307 176.996 177.793C177.702 177.048 178.675 176.614 179.703 176.588C180.73 176.561 181.727 176.944 182.474 177.651C183.221 178.359 183.657 179.333 183.687 180.361C183.716 181.388 183.336 182.384 182.63 183.129L182.648 183.128ZM83.3054 64.9216C86.4003 66.4052 89.3014 67.1611 91.1912 66.8526C91.9092 66.7359 92.475 66.6434 92.4523 64.8379C92.4129 61.8384 91.0496 61.6861 90.4679 61.6233C88.7026 61.4381 85.9687 62.5013 83.297 64.9304L83.3054 64.9216Z" fill="#FFC83E"/>
</g>
</svg>
